# 3ds Max Wavefront OBJ Exporter v0.97b - (c)2007 guruware
# File Created: 13.12.2017 17:17:30

mtllib kiana_wing.mtl

#
# object Wing
#

v  0.4110 0.9650 -0.2699
v  0.5271 0.9891 -0.3374
v  0.4530 1.0474 -0.2687
v  0.4912 0.9182 -0.3256
v  0.6017 0.9319 -0.3956
v  0.5708 0.8704 -0.3811
v  0.6747 0.8630 -0.4531
v  0.6521 0.8173 -0.4373
v  0.7229 0.7695 -0.4869
v  0.7426 0.7966 -0.5007
v  0.3342 1.0183 -0.2147
v  0.3756 1.0991 -0.2103
v  0.2778 1.0864 -0.1642
v  0.3111 1.1423 -0.1687
v  0.2214 1.1544 -0.1248
v  0.2465 1.1854 -0.1270
v  0.1753 1.2065 -0.0992
v  0.1936 1.2172 -0.0961
v  0.1651 1.2225 -0.0963
v  0.7987 0.7348 -0.5400
v  0.7839 0.7158 -0.5295
v  0.8475 0.6438 -0.5741
v  0.8597 0.6593 -0.5826
v  0.9253 0.5572 -0.6286
v  0.2591 0.9659 -0.1966
v  0.2744 0.8603 -0.1888
v  0.3100 0.8914 -0.2320
v  0.2166 0.9288 -0.1471
v  0.2195 1.0240 -0.1697
v  0.1749 0.9855 -0.1214
v  0.1422 1.0540 -0.0947
v  0.1829 1.0887 -0.1401
v  0.1150 1.1356 -0.0804
v  0.1447 1.1514 -0.1111
v  0.0971 1.2067 -0.0651
v  0.3709 0.8022 -0.2744
v  0.3437 0.7782 -0.2387
v  0.4198 0.7168 -0.3087
v  0.3982 0.7014 -0.2769
v  0.4607 0.6344 -0.3373
v  0.4437 0.6261 -0.3087
v  0.4886 0.5315 -0.3417
v  0.5015 0.5377 -0.3643
v  0.5416 0.4015 -0.3948
v  0.3278 1.4025 -0.2742
v  0.4487 1.3627 -0.3844
v  0.4106 1.4472 -0.3345
v  0.3508 1.3216 -0.3182
v  0.2893 1.3134 -0.2660
v  0.2777 1.3739 -0.2387
v  0.2276 1.3089 -0.2132
v  0.2280 1.3467 -0.2039
v  0.1658 1.3069 -0.1603
v  0.1782 1.3220 -0.1691
v  0.4768 1.4847 -0.3883
v  0.5132 1.4057 -0.4185
v  0.5447 1.5240 -0.4277
v  0.5761 1.4576 -0.4670
v  0.6117 1.5625 -0.4744
v  0.6399 1.5051 -0.5083
v  0.6787 1.6009 -0.5210
v  0.7036 1.5526 -0.5496
v  0.7736 1.6037 -0.5990
v  0.7532 1.6434 -0.5729
v  0.8290 1.6794 -0.6248
v  0.8423 1.6470 -0.6483
v  0.9384 1.6960 -0.7156
v  0.9301 1.7163 -0.6955
v  1.0650 1.7426 -0.7900
v  0.3311 1.2609 -0.2524
v  0.4069 1.2265 -0.3128
v  0.4048 1.2475 -0.3158
v  0.3321 1.2176 -0.2434
v  0.2798 1.2711 -0.2061
v  0.2714 1.2383 -0.1916
v  0.5246 1.2423 -0.4340
v  0.2182 1.2585 -0.1527
v  0.2254 1.2755 -0.1637
v  0.1744 1.2683 -0.1261
v  0.1793 1.2708 -0.1308
v  0.2606 1.4917 -0.2267
v  0.3460 1.4901 -0.3049
v  0.3160 1.5405 -0.2666
v  0.2922 1.4420 -0.2658
v  0.2264 1.4423 -0.2028
v  0.2414 1.4092 -0.2218
v  0.1914 1.3846 -0.1783
v  0.3728 1.5869 -0.3053
v  0.3983 1.5409 -0.3402
v  0.4240 1.6401 -0.3463
v  0.4427 1.6031 -0.3660
v  0.4752 1.6951 -0.3825
v  0.4869 1.6666 -0.3967
v  0.5146 1.7464 -0.4076
v  0.5242 1.7253 -0.4220
v  0.5514 1.8041 -0.4331
v  0.5594 1.7889 -0.4469
v  0.5861 1.8670 -0.4547
v  0.5919 1.8587 -0.4689
v  0.6424 1.9707 -0.4941
v  0.2463 1.3888 -0.2237
v  0.2825 1.3899 -0.2531
v  0.2748 1.4066 -0.2483
v  0.2494 1.3756 -0.2281
v  0.2175 1.3658 -0.1977
v  0.3192 1.4341 -0.2894
v  0.3278 1.4150 -0.2970
v  0.3809 1.4592 -0.3519
v  0.3731 1.4743 -0.3429
v  0.4416 1.5313 -0.4395
v  0.2711 1.0647 -0.2033
v  0.3082 0.9812 -0.2494
v  0.3170 0.9906 -0.2571
v  0.2508 1.0454 -0.1856
v  0.2140 1.1383 -0.1535
v  0.1961 1.1250 -0.1378
v  0.1620 1.1802 -0.1081
v  0.3593 0.9373 -0.3204
v  -0.4110 0.9650 -0.2699
v  -0.5271 0.9891 -0.3374
v  -0.4912 0.9182 -0.3256
v  -0.4530 1.0474 -0.2687
v  -0.6017 0.9319 -0.3956
v  -0.5708 0.8704 -0.3811
v  -0.6747 0.8630 -0.4531
v  -0.6521 0.8173 -0.4373
v  -0.7229 0.7695 -0.4869
v  -0.7426 0.7966 -0.5007
v  -0.3342 1.0183 -0.2147
v  -0.3756 1.0991 -0.2103
v  -0.2778 1.0864 -0.1642
v  -0.3111 1.1423 -0.1686
v  -0.2214 1.1544 -0.1248
v  -0.2465 1.1854 -0.1270
v  -0.1753 1.2065 -0.0992
v  -0.1936 1.2172 -0.0961
v  -0.1651 1.2225 -0.0963
v  -0.7987 0.7348 -0.5400
v  -0.7839 0.7158 -0.5295
v  -0.8475 0.6438 -0.5741
v  -0.8597 0.6593 -0.5826
v  -0.9253 0.5572 -0.6286
v  -0.2591 0.9659 -0.1966
v  -0.2744 0.8603 -0.1888
v  -0.2166 0.9288 -0.1471
v  -0.3100 0.8914 -0.2320
v  -0.2195 1.0240 -0.1697
v  -0.1749 0.9855 -0.1214
v  -0.1422 1.0540 -0.0947
v  -0.1829 1.0887 -0.1401
v  -0.1150 1.1356 -0.0804
v  -0.1447 1.1514 -0.1111
v  -0.0971 1.2067 -0.0651
v  -0.3709 0.8022 -0.2744
v  -0.3437 0.7782 -0.2387
v  -0.4198 0.7168 -0.3087
v  -0.3982 0.7014 -0.2769
v  -0.4607 0.6344 -0.3373
v  -0.4437 0.6261 -0.3087
v  -0.4886 0.5315 -0.3417
v  -0.5015 0.5377 -0.3643
v  -0.5416 0.4015 -0.3948
v  -0.3278 1.4025 -0.2742
v  -0.4487 1.3627 -0.3844
v  -0.3508 1.3216 -0.3182
v  -0.4106 1.4472 -0.3345
v  -0.2893 1.3134 -0.2660
v  -0.2777 1.3739 -0.2387
v  -0.2276 1.3089 -0.2132
v  -0.2280 1.3467 -0.2039
v  -0.1658 1.3069 -0.1603
v  -0.1782 1.3220 -0.1691
v  -0.4768 1.4847 -0.3883
v  -0.5132 1.4057 -0.4185
v  -0.5447 1.5240 -0.4277
v  -0.5761 1.4576 -0.4670
v  -0.6117 1.5625 -0.4744
v  -0.6399 1.5051 -0.5083
v  -0.6787 1.6009 -0.5210
v  -0.7036 1.5526 -0.5496
v  -0.7736 1.6037 -0.5990
v  -0.7532 1.6434 -0.5729
v  -0.8290 1.6794 -0.6248
v  -0.8423 1.6470 -0.6483
v  -0.9384 1.6960 -0.7156
v  -0.9301 1.7163 -0.6955
v  -1.0650 1.7426 -0.7900
v  -0.3311 1.2609 -0.2524
v  -0.4069 1.2265 -0.3128
v  -0.3321 1.2176 -0.2434
v  -0.4048 1.2475 -0.3158
v  -0.2798 1.2711 -0.2061
v  -0.2714 1.2383 -0.1916
v  -0.5246 1.2423 -0.4340
v  -0.2182 1.2585 -0.1527
v  -0.2254 1.2755 -0.1637
v  -0.1744 1.2683 -0.1261
v  -0.1793 1.2708 -0.1308
v  -0.2606 1.4917 -0.2267
v  -0.3460 1.4901 -0.3049
v  -0.2922 1.4420 -0.2658
v  -0.3160 1.5405 -0.2666
v  -0.2264 1.4423 -0.2028
v  -0.2414 1.4092 -0.2218
v  -0.1914 1.3846 -0.1783
v  -0.3728 1.5869 -0.3053
v  -0.3983 1.5409 -0.3402
v  -0.4240 1.6401 -0.3463
v  -0.4427 1.6031 -0.3660
v  -0.4752 1.6951 -0.3825
v  -0.4869 1.6666 -0.3967
v  -0.5146 1.7464 -0.4076
v  -0.5242 1.7253 -0.4220
v  -0.5514 1.8041 -0.4331
v  -0.5594 1.7889 -0.4469
v  -0.5861 1.8670 -0.4547
v  -0.5919 1.8587 -0.4689
v  -0.6424 1.9707 -0.4941
v  -0.2463 1.3888 -0.2237
v  -0.2825 1.3899 -0.2531
v  -0.2494 1.3756 -0.2281
v  -0.2748 1.4066 -0.2483
v  -0.2175 1.3658 -0.1977
v  -0.3192 1.4341 -0.2894
v  -0.3278 1.4150 -0.2970
v  -0.3809 1.4592 -0.3519
v  -0.3731 1.4743 -0.3429
v  -0.4416 1.5313 -0.4395
v  -0.2711 1.0647 -0.2033
v  -0.3082 0.9812 -0.2494
v  -0.2508 1.0454 -0.1856
v  -0.3170 0.9906 -0.2571
v  -0.2140 1.1383 -0.1535
v  -0.1961 1.1250 -0.1378
v  -0.1620 1.1802 -0.1081
v  -0.3593 0.9373 -0.3204
# 236 vertices

vn 0.4881 -0.2349 0.8406
vn 0.5330 -0.1587 0.8311
vn 0.5544 -0.0787 0.8286
vn 0.5543 -0.0787 0.8286
vn 0.5704 -0.0248 0.8210
vn 0.5704 -0.0249 0.8210
vn 0.5736 0.0000 0.8192
vn 0.4455 -0.2498 0.8597
vn 0.4235 -0.2228 0.8781
vn 0.3390 -0.2534 0.9060
vn 0.1140 -0.2583 0.9593
vn -0.0430 -0.2105 0.9766
vn 0.6878 0.1519 0.7098
vn 0.7038 0.1619 0.6918
vn 0.7038 0.1619 0.6917
vn 0.6942 0.1119 0.7110
vn 0.6942 0.1120 0.7110
vn 0.7028 0.0874 0.7060
vn 0.7042 0.0654 0.7069
vn 0.7113 0.0287 0.7023
vn 0.7260 0.1781 0.6643
vn 0.7641 0.1959 0.6146
vn 0.7641 0.1958 0.6146
vn 0.8032 0.2029 0.5601
vn 0.8332 0.1661 0.5274
vn 0.8449 0.1326 0.5182
vn 0.6350 -0.2052 0.7447
vn 0.6133 -0.1561 0.7743
vn 0.6350 -0.2053 0.7447
vn 0.6432 -0.2070 0.7372
vn 0.6370 -0.1822 0.7490
vn 0.6335 -0.1618 0.7566
vn 0.6014 -0.1052 0.7920
vn 0.6109 -0.1269 0.7815
vn 0.6109 -0.1269 0.7814
vn 0.6184 -0.1521 0.7710
vn 0.6236 -0.1486 0.7675
vn 0.6236 -0.1485 0.7675
vn 0.6335 -0.1810 0.7523
vn 0.6357 -0.2680 0.7239
vn 0.6031 -0.3859 0.6982
vn 0.6031 -0.3858 0.6982
vn 0.5699 -0.4474 0.6892
vn 0.6675 0.1619 0.7268
vn 0.6782 0.1680 0.7154
vn 0.6477 0.1759 0.7413
vn 0.6964 0.1683 0.6977
vn 0.5798 0.2484 0.7759
vn 0.5378 0.3004 0.7877
vn 0.6763 -0.1359 0.7240
vn 0.6606 -0.1666 0.7320
vn 0.6844 -0.1114 0.7205
vn 0.6818 -0.1061 0.7238
vn 0.6618 -0.1527 0.7339
vn 0.6570 -0.1103 0.7458
vn 0.6593 -0.1141 0.7432
vn 0.7034 -0.1479 0.6953
vn 0.7034 -0.1478 0.6953
vn 0.7651 -0.1883 0.6158
vn 0.8133 -0.2403 0.5299
vn 0.8307 -0.2647 0.4898
vn 0.6652 -0.0386 0.7457
vn 0.6514 0.0215 0.7585
vn 0.6979 -0.0695 0.7128
vn 0.6917 0.0252 0.7217
vn 0.7569 0.0281 0.6529
vn 0.7986 0.0562 0.5993
vn 0.6795 -0.0404 0.7325
vn 0.7242 -0.1265 0.6779
vn 0.6578 0.0000 0.7532
vn 0.7461 -0.1717 0.6433
vn -0.4881 -0.2349 0.8406
vn -0.5330 -0.1587 0.8311
vn -0.5544 -0.0787 0.8286
vn -0.5704 -0.0248 0.8210
vn -0.5704 -0.0249 0.8210
vn -0.5736 0.0000 0.8192
vn -0.4455 -0.2498 0.8597
vn -0.4235 -0.2228 0.8781
vn -0.3390 -0.2534 0.9060
vn -0.1140 -0.2583 0.9593
vn 0.0430 -0.2105 0.9766
vn -0.6878 0.1519 0.7098
vn -0.7038 0.1619 0.6917
vn -0.6942 0.1120 0.7110
vn -0.7028 0.0874 0.7060
vn -0.7042 0.0654 0.7069
vn -0.7113 0.0287 0.7023
vn -0.7260 0.1781 0.6643
vn -0.7641 0.1958 0.6146
vn -0.8032 0.2029 0.5601
vn -0.8332 0.1661 0.5274
vn -0.8449 0.1326 0.5182
vn -0.6350 -0.2053 0.7447
vn -0.6133 -0.1561 0.7743
vn -0.6350 -0.2052 0.7447
vn -0.6432 -0.2070 0.7372
vn -0.6370 -0.1822 0.7490
vn -0.6335 -0.1618 0.7566
vn -0.6014 -0.1052 0.7920
vn -0.6109 -0.1269 0.7815
vn -0.6109 -0.1269 0.7814
vn -0.6184 -0.1521 0.7710
vn -0.6236 -0.1485 0.7675
vn -0.6335 -0.1810 0.7523
vn -0.6357 -0.2680 0.7239
vn -0.6031 -0.3858 0.6982
vn -0.5699 -0.4474 0.6892
vn -0.6675 0.1619 0.7268
vn -0.6782 0.1680 0.7154
vn -0.6477 0.1759 0.7413
vn -0.6964 0.1683 0.6977
vn -0.5798 0.2484 0.7759
vn -0.5378 0.3004 0.7877
vn -0.6763 -0.1359 0.7240
vn -0.6606 -0.1666 0.7320
vn -0.6844 -0.1114 0.7205
vn -0.6818 -0.1061 0.7238
vn -0.6618 -0.1527 0.7339
vn -0.6570 -0.1102 0.7458
vn -0.6570 -0.1103 0.7458
vn -0.6593 -0.1141 0.7432
vn -0.7034 -0.1478 0.6953
vn -0.7651 -0.1884 0.6158
vn -0.8133 -0.2403 0.5299
vn -0.8307 -0.2647 0.4898
vn -0.6652 -0.0386 0.7457
vn -0.6514 0.0215 0.7585
vn -0.6979 -0.0695 0.7128
vn -0.6917 0.0252 0.7217
vn -0.7569 0.0281 0.6529
vn -0.7986 0.0562 0.5993
vn -0.6795 -0.0404 0.7325
vn -0.7242 -0.1265 0.6779
vn -0.6578 0.0000 0.7532
vn -0.7461 -0.1717 0.6433
# 136 vertex normals

vt 0.3090 0.0843 0.0000
vt 0.3797 0.0211 0.0000
vt 0.2989 0.0209 0.0000
vt 0.3838 0.0767 0.0000
vt 0.4565 0.0214 0.0000
vt 0.4587 0.0701 0.0000
vt 0.5363 0.0288 0.0000
vt 0.5365 0.0659 0.0000
vt 0.6051 0.0628 0.0000
vt 0.6095 0.0381 0.0000
vt 0.2336 0.0870 0.0000
vt 0.2227 0.0249 0.0000
vt 0.1644 0.0730 0.0000
vt 0.1616 0.0278 0.0000
vt 0.0988 0.0581 0.0000
vt 0.1006 0.0306 0.0000
vt 0.0483 0.0482 0.0000
vt 0.0529 0.0342 0.0000
vt 0.0356 0.0445 0.0000
vt 0.6725 0.0495 0.0000
vt 0.6688 0.0673 0.0000
vt 0.7411 0.0692 0.0000
vt 0.7441 0.0546 0.0000
vt 0.8289 0.0707 0.0000
vt 0.2522 0.0284 0.0000
vt 0.3139 0.0698 0.0000
vt 0.3195 0.0258 0.0000
vt 0.2460 0.0802 0.0000
vt 0.2000 0.0302 0.0000
vt 0.1941 0.0827 0.0000
vt 0.1385 0.0775 0.0000
vt 0.1444 0.0292 0.0000
vt 0.0806 0.0597 0.0000
vt 0.0895 0.0294 0.0000
vt 0.0313 0.0431 0.0000
vt 0.4000 0.0226 0.0000
vt 0.3952 0.0575 0.0000
vt 0.4723 0.0255 0.0000
vt 0.4657 0.0534 0.0000
vt 0.5389 0.0323 0.0000
vt 0.5306 0.0546 0.0000
vt 0.6064 0.0629 0.0000
vt 0.6130 0.0455 0.0000
vt 0.7102 0.0599 0.0000
vt 0.1625 0.0173 0.0000
vt 0.2516 0.0930 0.0000
vt 0.2400 0.0209 0.0000
vt 0.1653 0.0831 0.0000
vt 0.1127 0.0631 0.0000
vt 0.1155 0.0164 0.0000
vt 0.0609 0.0406 0.0000
vt 0.0693 0.0149 0.0000
vt 0.0097 0.0166 0.0000
vt 0.0238 0.0119 0.0000
vt 0.3045 0.0239 0.0000
vt 0.3099 0.0875 0.0000
vt 0.3654 0.0226 0.0000
vt 0.3753 0.0795 0.0000
vt 0.4281 0.0234 0.0000
vt 0.4371 0.0729 0.0000
vt 0.4908 0.0244 0.0000
vt 0.4989 0.0663 0.0000
vt 0.5679 0.0608 0.0000
vt 0.5604 0.0257 0.0000
vt 0.6287 0.0312 0.0000
vt 0.6338 0.0600 0.0000
vt 0.7220 0.0537 0.0000
vt 0.7170 0.0337 0.0000
vt 0.8283 0.0515 0.0000
vt 0.2059 0.0382 0.0000
vt 0.2738 0.0606 0.0000
vt 0.2737 0.0458 0.0000
vt 0.2031 0.0688 0.0000
vt 0.1578 0.0325 0.0000
vt 0.1473 0.0559 0.0000
vt 0.3906 0.0453 0.0000
vt 0.1013 0.0426 0.0000
vt 0.1098 0.0303 0.0000
vt 0.0659 0.0355 0.0000
vt 0.0705 0.0336 0.0000
vt 0.1453 0.0284 0.0000
vt 0.2031 0.0842 0.0000
vt 0.2031 0.0356 0.0000
vt 0.1465 0.0775 0.0000
vt 0.1006 0.0339 0.0000
vt 0.0969 0.0621 0.0000
vt 0.0517 0.0431 0.0000
vt 0.2601 0.0440 0.0000
vt 0.2593 0.0878 0.0000
vt 0.3186 0.0482 0.0000
vt 0.3147 0.0798 0.0000
vt 0.3765 0.0498 0.0000
vt 0.3720 0.0730 0.0000
vt 0.4246 0.0457 0.0000
vt 0.4227 0.0646 0.0000
vt 0.4747 0.0413 0.0000
vt 0.4748 0.0566 0.0000
vt 0.5253 0.0349 0.0000
vt 0.5281 0.0467 0.0000
vt 0.6097 0.0312 0.0000
vt 0.1119 0.0483 0.0000
vt 0.1412 0.0622 0.0000
vt 0.1408 0.0490 0.0000
vt 0.1110 0.0581 0.0000
vt 0.0807 0.0502 0.0000
vt 0.1869 0.0502 0.0000
vt 0.1883 0.0656 0.0000
vt 0.2494 0.0602 0.0000
vt 0.2464 0.0472 0.0000
vt 0.3377 0.0460 0.0000
vt 0.1988 0.0345 0.0000
vt 0.2680 0.0508 0.0000
vt 0.2697 0.0406 0.0000
vt 0.1938 0.0570 0.0000
vt 0.1255 0.0316 0.0000
vt 0.1194 0.0496 0.0000
vt 0.0704 0.0421 0.0000
vt 0.3342 0.0356 0.0000
# 118 texture coords

g Wing
usemtl Avatar_Kiana_C4_Material_Wings
s off
f 1/1/1 2/2/2 3/3/1 
f 1/1/1 4/4/2 2/2/2 
f 4/4/2 5/5/3 2/2/2 
f 4/4/2 6/6/4 5/5/3 
f 6/6/4 7/7/5 5/5/3 
f 6/6/4 8/8/6 7/7/5 
f 7/7/5 8/8/6 9/9/7 
f 7/7/5 9/9/7 10/10/7 
f 3/3/1 11/11/8 1/1/1 
f 3/3/1 12/12/8 11/11/8 
f 13/13/9 11/11/8 12/12/8 
f 13/13/9 12/12/8 14/14/9 
f 14/14/9 15/15/10 13/13/9 
f 14/14/9 16/16/10 15/15/10 
f 16/16/10 17/17/11 15/15/10 
f 16/16/10 18/18/11 17/17/11 
f 18/18/11 19/19/12 17/17/11 
f 9/9/7 20/20/7 10/10/7 
f 9/9/7 21/21/7 20/20/7 
f 20/20/7 21/21/7 22/22/7 
f 20/20/7 22/22/7 23/23/7 
f 23/23/7 22/22/7 24/24/7 
f 25/25/13 26/26/14 27/27/15 
f 25/25/13 28/28/13 26/26/14 
f 28/28/13 25/25/13 29/29/16 
f 28/28/13 29/29/16 30/30/17 
f 29/29/16 31/31/18 30/30/17 
f 29/29/16 32/32/18 31/31/18 
f 32/32/18 33/33/19 31/31/18 
f 32/32/18 34/34/19 33/33/19 
f 34/34/19 35/35/20 33/33/19 
f 26/26/14 36/36/21 27/27/15 
f 26/26/14 37/37/21 36/36/21 
f 37/37/21 38/38/22 36/36/21 
f 37/37/21 39/39/23 38/38/22 
f 39/39/23 40/40/24 38/38/22 
f 39/39/23 41/41/24 40/40/24 
f 40/40/24 41/41/24 42/42/25 
f 40/40/24 42/42/25 43/43/25 
f 43/43/25 42/42/25 44/44/26 
f 45/45/27 46/46/28 47/47/28 
f 45/45/27 48/48/29 46/46/28 
f 49/49/30 48/48/29 45/45/27 
f 49/49/30 45/45/27 50/50/30 
f 50/50/30 51/51/31 49/49/30 
f 50/50/30 52/52/31 51/51/31 
f 52/52/31 53/53/32 51/51/31 
f 52/52/31 54/54/32 53/53/32 
f 55/55/33 47/47/28 46/46/28 
f 55/55/33 46/46/28 56/56/33 
f 57/57/34 55/55/33 56/56/33 
f 57/57/34 56/56/33 58/58/35 
f 59/59/36 57/57/34 58/58/35 
f 59/59/36 58/58/35 60/60/36 
f 60/60/36 61/61/37 59/59/36 
f 60/60/36 62/62/38 61/61/37 
f 61/61/37 62/62/38 63/63/39 
f 61/61/37 63/63/39 64/64/39 
f 63/63/39 65/65/40 64/64/39 
f 63/63/39 66/66/40 65/65/40 
f 65/65/40 66/66/40 67/67/41 
f 65/65/40 67/67/41 68/68/42 
f 68/68/42 67/67/41 69/69/43 
f 70/70/44 71/71/45 72/72/45 
f 70/70/44 73/73/44 71/71/45 
f 73/73/44 70/70/44 74/74/46 
f 73/73/44 74/74/46 75/75/46 
f 72/72/45 71/71/45 76/76/47 
f 74/74/46 77/77/48 75/75/46 
f 74/74/46 78/78/48 77/77/48 
f 78/78/48 79/79/49 77/77/48 
f 78/78/48 80/80/49 79/79/49 
f 81/81/50 82/82/51 83/83/51 
f 81/81/50 84/84/50 82/82/51 
f 84/84/50 81/81/50 85/85/52 
f 84/84/50 85/85/52 86/86/52 
f 85/85/52 87/87/53 86/86/52 
f 82/82/51 88/88/54 83/83/51 
f 82/82/51 89/89/54 88/88/54 
f 89/89/54 90/90/55 88/88/54 
f 89/89/54 91/91/55 90/90/55 
f 91/91/55 92/92/56 90/90/55 
f 91/91/55 93/93/56 92/92/56 
f 94/94/57 92/92/56 93/93/56 
f 94/94/57 93/93/56 95/95/58 
f 95/95/58 96/96/59 94/94/57 
f 95/95/58 97/97/59 96/96/59 
f 97/97/59 98/98/60 96/96/59 
f 97/97/59 99/99/60 98/98/60 
f 98/98/60 99/99/60 100/100/61 
f 101/101/62 102/102/63 103/103/63 
f 101/101/62 104/104/62 102/102/63 
f 104/104/62 101/101/62 105/105/64 
f 102/102/63 106/106/65 103/103/63 
f 102/102/63 107/107/65 106/106/65 
f 106/106/65 107/107/65 108/108/66 
f 106/106/65 108/108/66 109/109/66 
f 109/109/66 108/108/66 110/110/67 
f 111/111/68 112/112/69 113/113/69 
f 111/111/68 114/114/68 112/112/69 
f 114/114/68 111/111/68 115/115/70 
f 114/114/68 115/115/70 116/116/70 
f 115/115/70 117/117/70 116/116/70 
f 113/113/69 112/112/69 118/118/71 
f 119/1/72 120/2/73 121/4/73 
f 119/1/72 122/3/72 120/2/73 
f 121/4/73 120/2/73 123/5/74 
f 121/4/73 123/5/74 124/6/74 
f 124/6/74 123/5/74 125/7/75 
f 124/6/74 125/7/75 126/8/76 
f 125/7/75 127/9/77 126/8/76 
f 125/7/75 128/10/77 127/9/77 
f 122/3/72 119/1/72 129/11/78 
f 122/3/72 129/11/78 130/12/78 
f 131/13/79 130/12/78 129/11/78 
f 131/13/79 132/14/79 130/12/78 
f 132/14/79 131/13/79 133/15/80 
f 132/14/79 133/15/80 134/16/80 
f 134/16/80 133/15/80 135/17/81 
f 134/16/80 135/17/81 136/18/81 
f 136/18/81 135/17/81 137/19/82 
f 127/9/77 128/10/77 138/20/77 
f 127/9/77 138/20/77 139/21/77 
f 138/20/77 140/22/77 139/21/77 
f 138/20/77 141/23/77 140/22/77 
f 141/23/77 142/24/77 140/22/77 
f 143/25/83 144/26/84 145/28/83 
f 143/25/83 146/27/84 144/26/84 
f 145/28/83 147/29/85 143/25/83 
f 145/28/83 148/30/85 147/29/85 
f 147/29/85 148/30/85 149/31/86 
f 147/29/85 149/31/86 150/32/86 
f 150/32/86 149/31/86 151/33/87 
f 150/32/86 151/33/87 152/34/87 
f 152/34/87 151/33/87 153/35/88 
f 144/26/84 146/27/84 154/36/89 
f 144/26/84 154/36/89 155/37/89 
f 155/37/89 154/36/89 156/38/90 
f 155/37/89 156/38/90 157/39/90 
f 157/39/90 156/38/90 158/40/91 
f 157/39/90 158/40/91 159/41/91 
f 158/40/91 160/42/92 159/41/91 
f 158/40/91 161/43/92 160/42/92 
f 161/43/92 162/44/93 160/42/92 
f 163/45/94 164/46/95 165/48/96 
f 163/45/94 166/47/95 164/46/95 
f 167/49/97 163/45/94 165/48/96 
f 167/49/97 168/50/97 163/45/94 
f 168/50/97 167/49/97 169/51/98 
f 168/50/97 169/51/98 170/52/98 
f 170/52/98 169/51/98 171/53/99 
f 170/52/98 171/53/99 172/54/99 
f 173/55/100 164/46/95 166/47/95 
f 173/55/100 174/56/100 164/46/95 
f 175/57/101 174/56/100 173/55/100 
f 175/57/101 176/58/102 174/56/100 
f 177/59/103 176/58/102 175/57/101 
f 177/59/103 178/60/103 176/58/102 
f 178/60/103 177/59/103 179/61/104 
f 178/60/103 179/61/104 180/62/104 
f 179/61/104 181/63/105 180/62/104 
f 179/61/104 182/64/105 181/63/105 
f 181/63/105 182/64/105 183/65/106 
f 181/63/105 183/65/106 184/66/106 
f 183/65/106 185/67/107 184/66/106 
f 183/65/106 186/68/107 185/67/107 
f 186/68/107 187/69/108 185/67/107 
f 188/70/109 189/71/110 190/73/109 
f 188/70/109 191/72/110 189/71/110 
f 190/73/109 192/74/111 188/70/109 
f 190/73/109 193/75/111 192/74/111 
f 191/72/110 194/76/112 189/71/110 
f 192/74/111 193/75/111 195/77/113 
f 192/74/111 195/77/113 196/78/113 
f 196/78/113 195/77/113 197/79/114 
f 196/78/113 197/79/114 198/80/114 
f 199/81/115 200/82/116 201/84/115 
f 199/81/115 202/83/116 200/82/116 
f 201/84/115 203/85/117 199/81/115 
f 201/84/115 204/86/117 203/85/117 
f 203/85/117 204/86/117 205/87/118 
f 200/82/116 202/83/116 206/88/119 
f 200/82/116 206/88/119 207/89/119 
f 207/89/119 206/88/119 208/90/120 
f 207/89/119 208/90/120 209/91/121 
f 209/91/121 208/90/120 210/92/122 
f 209/91/121 210/92/122 211/93/122 
f 212/94/123 211/93/122 210/92/122 
f 212/94/123 213/95/123 211/93/122 
f 213/95/123 212/94/123 214/96/124 
f 213/95/123 214/96/124 215/97/124 
f 215/97/124 214/96/124 216/98/125 
f 215/97/124 216/98/125 217/99/125 
f 216/98/125 218/100/126 217/99/125 
f 219/101/127 220/102/128 221/104/127 
f 219/101/127 222/103/128 220/102/128 
f 221/104/127 223/105/129 219/101/127 
f 220/102/128 222/103/128 224/106/130 
f 220/102/128 224/106/130 225/107/130 
f 224/106/130 226/108/131 225/107/130 
f 224/106/130 227/109/131 226/108/131 
f 227/109/131 228/110/132 226/108/131 
f 229/111/133 230/112/134 231/114/133 
f 229/111/133 232/113/134 230/112/134 
f 231/114/133 233/115/135 229/111/133 
f 231/114/133 234/116/135 233/115/135 
f 233/115/135 234/116/135 235/117/135 
f 232/113/134 236/118/136 230/112/134 
# 0 polygons - 208 triangles

